<svg version="1.1"
     baseProfile="full"
     width="500" height="300"
     xmlns="http://www.w3.org/2000/svg">

  <rect x="0" y="0" width="100%" height="100%" fill="transparent" />

  <g>
    <g id="task">
      <circle cx="17" cy="17" r="15" stroke="black" stroke-width="2" fill="transparent" />
      <line x1="32" x2="82" y1="17" y2="17" stroke="black" stroke-width="2" />
      <line x1="72" x2="82" y1="22" y2="17" stroke="black" stroke-width="2" />
      <line x1="72" x2="82" y1="12" y2="17" stroke="black" stroke-width="2" />
    </g>
    <text x="57" y="15" font-size="12" text-anchor="middle" fill="black">A</text>
    <text x="57" y="29" font-size="12" text-anchor="middle" fill="black">5</text>
  </g>
  <g transform="translate(80)">
    <use href="#task" />
    <text x="57" y="15" font-size="12" text-anchor="middle" fill="black">B</text>
    <text x="57" y="29" font-size="12" text-anchor="middle" fill="black">8</text>
  </g>
  <g transform="translate(160)">
    <use href="#task" />
    <text x="57" y="15" font-size="12" text-anchor="middle" fill="black">D</text>
    <text x="57" y="29" font-size="12" text-anchor="middle" fill="black">7</text>
  </g>
  <g transform="translate(240)">
    <circle cx="17" cy="17" r="15" stroke="black" stroke-width="2" fill="transparent" />
  </g>

  <g transform="translate(80 185)">
    <use href="#task" />
    <text x="57" y="15" font-size="12" text-anchor="middle" fill="black">F</text>
    <text x="57" y="29" font-size="12" text-anchor="middle" fill="black">5</text>
  </g>
  <g transform="translate(160 185)">
    <circle cx="17" cy="17" r="15" stroke="black" stroke-width="2" fill="transparent" />
    <line x1="32" x2="204" y1="17" y2="17" stroke="black" stroke-width="2" />
    <line x1="194" x2="204" y1="22" y2="17" stroke="black" stroke-width="2" />
    <line x1="194" x2="204" y1="12" y2="17" stroke="black" stroke-width="2" />
    <text x="118" y="15" font-size="12" text-anchor="middle" fill="black">H</text>
    <text x="118" y="29" font-size="12" text-anchor="middle" fill="black">4</text>
  </g>
  <g transform="translate(363 185)">
    <use href="#task" />
    <text x="57" y="15" font-size="12" text-anchor="middle" fill="black">I</text>
    <text x="57" y="29" font-size="12" text-anchor="middle" fill="black">2</text>
  </g>
  <g transform="translate(443 185)">
    <circle cx="17" cy="15" r="15" stroke="black" stroke-width="2" fill="transparent" />
  </g>

  <g>
    <line x1="97" x2="97" y1="32" y2="187" stroke="black" stroke-width="2" />
    <line x1="92" x2="97" y1="177" y2="187" stroke="black" stroke-width="2" />
    <line x1="102" x2="97" y1="177" y2="187" stroke="black" stroke-width="2" />
  </g>
  <g transform="translate(10 20)">
    <text x="97" y="97" font-size="12" text-anchor="middle" fill="black">C</text>
    <text x="77" y="97" font-size="12" text-anchor="middle" fill="black">7</text>
  </g>

  <!-- BE1 -->
  <g transform="translate(172 32)">
    <line x1="5" x2="5" y1="0" y2="70" stroke="black" stroke-width="2" />
    <line x1="0" x2="5" y1="60" y2="70" stroke="black" stroke-width="2" />
    <line x1="10" x2="5" y1="60" y2="70" stroke="black" stroke-width="2" />
    <circle cx="5" cy="85" r="15" stroke="black" stroke-width="2" fill="transparent" />
    <line x1="5" x2="5" y1="100" y2="155" stroke="black" stroke-width="2" />
    <line x1="0" x2="5" y1="145" y2="155" stroke="black" stroke-width="2" />
    <line x1="10" x2="5" y1="145" y2="155" stroke="black" stroke-width="2" />
    <circle cx="105" cy="85" r="15" stroke="black" stroke-width="2" fill="transparent" />
    <g transform="rotate(-45 5 -10)">
      <line x1="5" x2="5" y1="0" y2="113" stroke="black" stroke-width="2" />
      <line x1="0" x2="5" y1="103" y2="113" stroke="black" stroke-width="2" />
      <line x1="10" x2="5" y1="103" y2="113" stroke="black" stroke-width="2" />
    </g>
    <line x1="20" x2="90" y1="85" y2="85" stroke="black" stroke-width="2" stroke-dasharray="2" />
    <line x1="20" x2="30" y1="85" y2="90" stroke="black" stroke-width="2" />
    <line x1="20" x2="30" y1="85" y2="80" stroke="black" stroke-width="2" />
  </g>
  <g transform="translate(167 77)">
    <text x="20" y="0" font-size="12" text-anchor="middle" fill="black">E1</text>
    <text x="0" y="0" font-size="12" text-anchor="middle" fill="black">3</text>
  </g>
  <g transform="translate(217 77)">
    <text x="30" y="0" font-size="12" text-anchor="middle" fill="black">E2</text>
    <text x="0" y="0" font-size="12" text-anchor="middle" fill="black">4</text>
  </g>
  <g transform="translate(167 157)">
    <text x="20" y="0" font-size="12" text-anchor="middle" fill="black">E3</text>
    <text x="0" y="0" font-size="12" text-anchor="middle" fill="black">2</text>
  </g>

  <!-- DI -->
  <g transform="rotate(-48 257 17) translate(0 15)">
    <line x1="257" x2="257" y1="17" y2="260" stroke="black" stroke-width="2" />
    <line x1="252" x2="257" y1="250" y2="260" stroke="black" stroke-width="2" />
    <line x1="262" x2="257" y1="250" y2="260" stroke="black" stroke-width="2" />
  </g>
  <g transform="translate(265)">
    <text x="117" y="117" font-size="12" text-anchor="middle" fill="black">G</text>
    <text x="77" y="117" font-size="12" text-anchor="middle" fill="black">7</text>
  </g>

</svg>
