<svg version="1.1"
     baseProfile="full"
     width="500" height="300"
     xmlns="http://www.w3.org/2000/svg">

  <rect x="0" y="0" width="100%" height="100%" fill="transparent" />

  <g>
    <g id="task">
      <circle cx="17" cy="17" r="15" stroke="black" stroke-width="2" fill="transparent" />
      <line x1="32" x2="82" y1="17" y2="17" stroke="black" stroke-width="2" />
      <line x1="72" x2="82" y1="22" y2="17" stroke="black" stroke-width="2" />
      <line x1="72" x2="82" y1="12" y2="17" stroke="black" stroke-width="2" />
    </g>
    <text x="57" y="15" font-size="12" text-anchor="middle" fill="black">A</text>
    <text x="57" y="29" font-size="12" text-anchor="middle" fill="black">5</text>
  </g>
  <g transform="translate(80)">
    <use href="#task" />
    <text x="57" y="15" font-size="12" text-anchor="middle" fill="black">B</text>
    <text x="57" y="29" font-size="12" text-anchor="middle" fill="black">8</text>
  </g>
  <g transform="translate(160)">
    <use href="#task" />
    <text x="57" y="15" font-size="12" text-anchor="middle" fill="black">D</text>
    <text x="57" y="29" font-size="12" text-anchor="middle" fill="black">7</text>
  </g>
  <g transform="translate(240)">
    <circle cx="17" cy="17" r="15" stroke="black" stroke-width="2" fill="transparent" />
  </g>

  <g transform="translate(203 185)">
    <use href="#task" />
    <text x="57" y="15" font-size="12" text-anchor="middle" fill="black">F</text>
    <text x="57" y="29" font-size="12" text-anchor="middle" fill="black">5</text>
  </g>
  <g transform="translate(283 185)">
    <use href="#task" />
    <text x="57" y="15" font-size="12" text-anchor="middle" fill="black">H</text>
    <text x="57" y="29" font-size="12" text-anchor="middle" fill="black">4</text>
  </g>
  <g transform="translate(363 185)">
    <use href="#task" />
    <text x="57" y="15" font-size="12" text-anchor="middle" fill="black">I</text>
    <text x="57" y="29" font-size="12" text-anchor="middle" fill="black">2</text>
  </g>
  <g transform="translate(443 185)">
    <circle cx="17" cy="15" r="15" stroke="black" stroke-width="2" fill="transparent" />
  </g>

  <!-- Y軸に15移動して、半時計周りに30°回転する -->
  <!-- 97 = 17 + 80 -->
  <g transform="rotate(-30 97 17) translate(0 15)">
    <line x1="97" x2="97" y1="17" y2="217" stroke="black" stroke-width="2" />
    <line x1="92" x2="97" y1="207" y2="217" stroke="black" stroke-width="2" />
    <line x1="102" x2="97" y1="207" y2="217" stroke="black" stroke-width="2" />
  </g>
  <g transform="translate(65 20)">
    <text x="97" y="97" font-size="12" text-anchor="middle" fill="black">C</text>
    <text x="77" y="97" font-size="12" text-anchor="middle" fill="black">7</text>
  </g>

  <!-- BF -->
  <g transform="rotate(-34 177 17) translate(0 15)">
    <line x1="177" x2="177" y1="17" y2="208" stroke="black" stroke-width="2" />
    <line x1="172" x2="177" y1="198" y2="208" stroke="black" stroke-width="2" />
    <line x1="182" x2="177" y1="198" y2="208" stroke="black" stroke-width="2" />
  </g>
  <g transform="translate(155 20)">
    <text x="97" y="97" font-size="12" text-anchor="middle" fill="black">E</text>
    <text x="77" y="97" font-size="12" text-anchor="middle" fill="black">9</text>
  </g>

  <!-- DI -->
  <g transform="rotate(-48 257 17) translate(225 15)">
    <line x1="32" x2="32" y1="17" y2="260" stroke="black" stroke-width="2" />
    <line x1="27" x2="32" y1="250" y2="260" stroke="black" stroke-width="2" />
    <line x1="37" x2="32" y1="250" y2="260" stroke="black" stroke-width="2" />
  </g>
  <g transform="translate(285 20)">
    <text x="97" y="97" font-size="12" text-anchor="middle" fill="black">G</text>
    <text x="57" y="97" font-size="12" text-anchor="middle" fill="black">7</text>
  </g>

</svg>
